<?xml version="1.0" encoding="UTF-8"?>
<svg width="609px" height="351px" viewBox="0 0 609 351" version="1.1" xmlns="http://www.w3.org/2000/svg" xmlns:xlink="http://www.w3.org/1999/xlink">
    <title>Group 3</title>
    <g id="Page-1" stroke="none" stroke-width="1" fill="none" fill-rule="evenodd">
        <g id="Group-3" fill="#090909" fill-rule="nonzero">
            <path d="M199.525589,193 C213.128996,193 223.077757,188.329132 229.777943,180.612045 L229.777943,190.156863 L260.233333,190.156863 L260.233333,48 L229.777943,48 L229.777943,98.1610644 C223.077757,90.4439776 213.128996,85.7731092 199.525589,85.7731092 C172.927881,85.7731092 151,109.127451 151,139.386555 C151,169.645658 172.927881,193 199.525589,193 Z M205.133333,164 C191.120728,164 180.966667,154.503689 180.966667,139.35 C180.966667,124.196311 191.120728,114.7 205.133333,114.7 C219.145938,114.7 229.3,124.196311 229.3,139.35 C229.3,154.503689 219.145938,164 205.133333,164 Z M299.092255,193 C312.695663,193 322.644424,188.329132 329.34461,180.612045 L329.34461,190.156863 L359.8,190.156863 L359.8,48 L329.34461,48 L329.34461,98.1610644 C322.644424,90.4439776 312.695663,85.7731092 299.092255,85.7731092 C272.494548,85.7731092 250.566667,109.127451 250.566667,139.386555 C250.566667,169.645658 272.494548,193 299.092255,193 Z M305.666667,164 C291.654062,164 281.5,154.503689 281.5,139.35 C281.5,124.196311 291.654062,114.7 305.666667,114.7 C319.679272,114.7 329.833333,124.196311 329.833333,139.35 C329.833333,154.503689 319.679272,164 305.666667,164 Z M397.692255,193 C411.295663,193 421.244424,188.329132 427.94461,180.612045 L427.94461,190.156863 L458.4,190.156863 L458.4,48 L427.94461,48 L427.94461,98.1610644 C421.244424,90.4439776 411.295663,85.7731092 397.692255,85.7731092 C371.094548,85.7731092 349.166667,109.127451 349.166667,139.386555 C349.166667,169.645658 371.094548,193 397.692255,193 Z M404.266667,164 C390.254062,164 380.1,154.503689 380.1,139.35 C380.1,124.196311 390.254062,114.7 404.266667,114.7 C418.279272,114.7 428.433333,124.196311 428.433333,139.35 C428.433333,154.503689 418.279272,164 404.266667,164 Z" id="ddd"></path>
            <path d="M90.4971395,302.818146 L90.4971395,272.423288 L101.964458,272.423288 L101.964458,265 L70,265 L70,272.423288 L81.4857845,272.423288 L81.4857845,302.818146 L90.4971395,302.818146 Z M157.59232,302.818146 L157.59232,287.620717 L172.494294,287.620717 L172.494294,302.818146 L181.616444,302.818146 L181.616444,265 L172.494294,265 L172.494294,280.178963 L157.59232,280.178963 L157.59232,265 L148.451703,265 L148.451703,302.818146 L157.59232,302.818146 Z M238.481524,302.818146 L238.481524,289.873556 L243.171861,289.873556 L250.078104,302.818146 L260.049685,302.818146 L252.201682,288.41475 C256.356507,286.531229 258.757073,282.819585 258.757073,277.593738 C258.757073,269.819598 253.457362,265 244.963052,265 L229.340908,265 L229.340908,302.818146 L238.481524,302.818146 Z M242.987202,282.671858 L238.481524,282.671858 L238.481524,272.367891 L242.987202,272.367891 C247.08663,272.367891 249.284071,274.085219 249.284071,277.593738 C249.284071,281.102257 247.08663,282.671858 242.987202,282.671858 Z M332.130655,302.818146 L332.130655,295.394857 L314.901979,295.394857 L314.901979,287.620717 L330.782645,287.620717 L330.782645,280.178963 L314.901979,280.178963 L314.901979,272.423288 L332.130655,272.423288 L332.130655,265 L305.761362,265 L305.761362,302.818146 L332.130655,302.818146 Z M406.224405,302.818146 L406.224405,295.394857 L388.995729,295.394857 L388.995729,287.620717 L404.876395,287.620717 L404.876395,280.178963 L388.995729,280.178963 L388.995729,272.423288 L406.224405,272.423288 L406.224405,265 L379.855112,265 L379.855112,302.818146 L406.224405,302.818146 Z M521.117883,302.818146 C532.6406,302.818146 539.7869,295.708778 539.7869,283.890607 C539.7869,272.090902 532.6406,265 521.099417,265 L507.139203,265 L507.139203,302.818146 L521.117883,302.818146 Z M520.767031,295.02554 L516.27982,295.02554 L516.27982,272.792606 L520.63777,272.792606 C527.137764,272.792606 530.627817,275.747149 530.627817,283.890607 C530.627817,292.070997 527.137764,295.02554 520.767031,295.02554 Z" id="THREED"></path>
        </g>
    </g>
</svg>